<svg width="624" height="691" xmlns="http://www.w3.org/2000/svg" xmlns:xlink="http://www.w3.org/1999/xlink" overflow="hidden"><defs><clipPath id="clip0"><rect x="0" y="0" width="624" height="691"/></clipPath></defs><g clip-path="url(#clip0)"><rect x="0" y="0" width="624" height="690.833" fill="#FFFFFF"/><path d="M18.8154 12.0858 132.807 12.0858 132.807 31.7574 18.8154 31.7574Z" fill="#D9D9D9" fill-rule="evenodd"/><path d="M132.807 12.0858 199.861 12.0858 199.861 35.3211 132.807 35.3211Z" fill="#D9D9D9" fill-rule="evenodd"/><path d="M199.861 12.0858 332.627 12.0858 332.627 35.3211 199.861 35.3211Z" fill="#47D359" fill-rule="evenodd"/><path d="M332.627 12.0858 465.394 12.0858 465.394 35.3211 332.627 35.3211Z" fill="#FFFF00" fill-rule="evenodd"/><path d="M465.394 12.0858 605.185 12.0858 605.185 35.3211 465.394 35.3211Z" fill="#F4AF4A" fill-rule="evenodd"/><path d="M18.8154 31.7574 132.807 31.7574 132.807 73.8091 18.8154 73.8091Z" fill="#D9D9D9" fill-rule="evenodd"/><path d="M132.807 35.3211 199.861 35.3211 199.861 54.5651 132.807 54.5651Z" fill="#D9D9D9" fill-rule="evenodd"/><path d="M199.861 35.3211 266.244 35.3211 266.244 54.5651 199.861 54.5651Z" fill="#47D359" fill-rule="evenodd"/><path d="M266.244 35.3211 332.627 35.3211 332.627 54.5651 266.244 54.5651Z" fill="#47D359" fill-rule="evenodd"/><path d="M332.627 35.3211 399.011 35.3211 399.011 54.5651 332.627 54.5651Z" fill="#FFFF00" fill-rule="evenodd"/><path d="M399.011 35.3211 465.394 35.3211 465.394 54.5651 399.011 54.5651Z" fill="#FFFF00" fill-rule="evenodd"/><path d="M465.394 35.3211 531.777 35.3211 531.777 54.5651 465.394 54.5651Z" fill="#F4AF4A" fill-rule="evenodd"/><path d="M531.777 35.3211 605.185 35.3211 605.185 54.5651 531.777 54.5651Z" fill="#F4AF4A" fill-rule="evenodd"/><path d="M132.807 54.5651 199.861 54.5651 199.861 73.8091 132.807 73.8091Z" fill="#D9D9D9" fill-rule="evenodd"/><path d="M199.861 54.5651 266.244 54.5651 266.244 73.8091 199.861 73.8091Z" fill="#47D359" fill-rule="evenodd"/><path d="M266.244 54.5651 332.627 54.5651 332.627 73.8091 266.244 73.8091Z" fill="#47D359" fill-rule="evenodd"/><path d="M332.627 54.5651 399.011 54.5651 399.011 73.8091 332.627 73.8091Z" fill="#FFFF00" fill-rule="evenodd"/><path d="M399.011 54.5651 465.394 54.5651 465.394 73.8091 399.011 73.8091Z" fill="#FFFF00" fill-rule="evenodd"/><path d="M465.394 54.5651 531.777 54.5651 531.777 73.8091 465.394 73.8091Z" fill="#F4AF4A" fill-rule="evenodd"/><path d="M531.777 54.5651 605.185 54.5651 605.185 73.8091 531.777 73.8091Z" fill="#F4AF4A" fill-rule="evenodd"/><path d="M18.8154 73.8091 132.807 73.8091 132.807 95.904 18.8154 95.904Z" fill="#F2F2F2" fill-rule="evenodd"/><path d="M132.807 73.8091 199.861 73.8091 199.861 93.053 132.807 93.053Z" fill="#F2F2F2" fill-rule="evenodd"/><path d="M199.861 73.8091 266.244 73.8091 266.244 93.053 199.861 93.053Z" fill="#C1F0C8" fill-rule="evenodd"/><path d="M266.244 73.8091 332.627 73.8091 332.627 93.053 266.244 93.053Z" fill="#C1F0C8" fill-rule="evenodd"/><path d="M332.627 73.8091 399.011 73.8091 399.011 93.053 332.627 93.053Z" fill="#FFFF99" fill-rule="evenodd"/><path d="M399.011 73.8091 465.394 73.8091 465.394 93.053 399.011 93.053Z" fill="#FFFF99" fill-rule="evenodd"/><path d="M465.394 73.8091 531.777 73.8091 531.777 93.053 465.394 93.053Z" fill="#F8D980" fill-rule="evenodd"/><path d="M531.777 73.8091 605.185 73.8091 605.185 93.053 531.777 93.053Z" fill="#F8D980" fill-rule="evenodd"/><path d="M132.807 93.053 199.861 93.053 199.861 113.722 132.807 113.722Z" fill="#F2F2F2" fill-rule="evenodd"/><path d="M199.861 93.053 266.244 93.053 266.244 113.722 199.861 113.722Z" fill="#C1F0C8" fill-rule="evenodd"/><path d="M266.244 93.053 332.627 93.053 332.627 113.722 266.244 113.722Z" fill="#C1F0C8" fill-rule="evenodd"/><path d="M332.627 93.053 399.011 93.053 399.011 113.722 332.627 113.722Z" fill="#FFFF99" fill-rule="evenodd"/><path d="M399.011 93.053 465.394 93.053 465.394 113.722 399.011 113.722Z" fill="#FFFF99" fill-rule="evenodd"/><path d="M465.394 93.053 531.777 93.053 531.777 113.722 465.394 113.722Z" fill="#F8D980" fill-rule="evenodd"/><path d="M531.777 93.053 605.185 93.053 605.185 113.722 531.777 113.722Z" fill="#F8D980" fill-rule="evenodd"/><path d="M18.8154 95.904 132.807 95.904 132.807 116.573 18.8154 116.573Z" fill="#F2F2F2" fill-rule="evenodd"/><path d="M132.807 113.722 199.861 113.722 199.861 135.39 132.807 135.39Z" fill="#F2F2F2" fill-rule="evenodd"/><path d="M199.861 113.722 266.244 113.722 266.244 135.39 199.861 135.39Z" fill="#C1F0C8" fill-rule="evenodd"/><path d="M266.244 113.722 332.627 113.722 332.627 135.39 266.244 135.39Z" fill="#C1F0C8" fill-rule="evenodd"/><path d="M332.627 113.722 399.011 113.722 399.011 135.39 332.627 135.39Z" fill="#FFFF99" fill-rule="evenodd"/><path d="M399.011 113.722 465.394 113.722 465.394 135.39 399.011 135.39Z" fill="#FFFF99" fill-rule="evenodd"/><path d="M465.394 113.722 531.777 113.722 531.777 135.39 465.394 135.39Z" fill="#F8D980" fill-rule="evenodd"/><path d="M531.777 113.722 605.185 113.722 605.185 135.39 531.777 135.39Z" fill="#F8D980" fill-rule="evenodd"/><path d="M18.8154 116.573 132.807 116.573 132.807 138.241 18.8154 138.241Z" fill="#F2F2F2" fill-rule="evenodd"/><path d="M132.807 135.39 199.861 135.39 199.861 160.229 132.807 160.229Z" fill="#F2F2F2" fill-rule="evenodd"/><path d="M199.861 135.39 266.244 135.39 266.244 160.229 199.861 160.229Z" fill="#C1F0C8" fill-rule="evenodd"/><path d="M266.244 135.39 332.627 135.39 332.627 160.229 266.244 160.229Z" fill="#C1F0C8" fill-rule="evenodd"/><path d="M332.627 135.39 399.011 135.39 399.011 160.229 332.627 160.229Z" fill="#FFFF99" fill-rule="evenodd"/><path d="M399.011 135.39 465.394 135.39 465.394 160.229 399.011 160.229Z" fill="#FFFF99" fill-rule="evenodd"/><path d="M465.394 135.39 531.777 135.39 531.777 160.229 465.394 160.229Z" fill="#F8D980" fill-rule="evenodd"/><path d="M531.777 135.39 605.185 135.39 605.185 160.229 531.777 160.229Z" fill="#F8D980" fill-rule="evenodd"/><path d="M18.8154 138.241 132.807 138.241 132.807 157.378 18.8154 157.378Z" fill="#F2F2F2" fill-rule="evenodd"/><path d="M18.8154 157.378 132.807 157.378 132.807 179.045 18.8154 179.045Z" fill="#F2F2F2" fill-rule="evenodd"/><path d="M132.807 160.229 199.861 160.229 199.861 179.045 132.807 179.045Z" fill="#F2F2F2" fill-rule="evenodd"/><path d="M199.861 160.229 266.244 160.229 266.244 179.045 199.861 179.045Z" fill="#C1F0C8" fill-rule="evenodd"/><path d="M266.244 160.229 332.627 160.229 332.627 179.045 266.244 179.045Z" fill="#C1F0C8" fill-rule="evenodd"/><path d="M332.627 160.229 399.011 160.229 399.011 179.045 332.627 179.045Z" fill="#FFFF99" fill-rule="evenodd"/><path d="M399.011 160.229 465.394 160.229 465.394 179.045 399.011 179.045Z" fill="#FFFF99" fill-rule="evenodd"/><path d="M465.394 160.229 531.777 160.229 531.777 179.045 465.394 179.045Z" fill="#F8D980" fill-rule="evenodd"/><path d="M531.777 160.229 605.185 160.229 605.185 179.045 531.777 179.045Z" fill="#F8D980" fill-rule="evenodd"/><path d="M199.861 35.3211 199.861 93.053" stroke="#000000" stroke-width="1.33333" stroke-linejoin="round" stroke-miterlimit="10" stroke-dasharray="5.33333 4 1.33333 4" fill="none" fill-rule="evenodd"/><path d="M332.627 35.3211 332.627 113.722" stroke="#000000" stroke-width="1.33333" stroke-linejoin="round" stroke-miterlimit="10" stroke-dasharray="5.33333 4 1.33333 4" fill="none" fill-rule="evenodd"/><path d="M465.394 35.3211 465.394 113.722" stroke="#000000" stroke-width="1.33333" stroke-linejoin="round" stroke-miterlimit="10" stroke-dasharray="5.33333 4 1.33333 4" fill="none" fill-rule="evenodd"/><text font-family="Arial,Arial_MSFontService,sans-serif" font-style="italic" font-weight="700" font-size="15" transform="matrix(1 0 0 0.999759 506.373 29)">Invasive</text><text font-family="Arial,Arial_MSFontService,sans-serif" font-style="italic" font-weight="700" font-size="15" transform="matrix(1 0 0 0.999759 357.844 29)">Established</text><text font-family="Arial,Arial_MSFontService,sans-serif" font-style="italic" font-weight="700" font-size="15" transform="matrix(1 0 0 0.999759 228.327 29)">Introduced</text><g><text font-family="Arial,Arial_MSFontService,sans-serif" font-weight="700" font-size="15" transform="matrix(1 0 0 0.999759 24.6821 27)">Invasion phase</text></g><g><text font-family="Arial,Arial_MSFontService,sans-serif" font-weight="700" font-size="15" transform="matrix(1 0 0 0.999759 24.6821 58)">Driving factor</text></g><g><text font-family="Arial,Arial_MSFontService,sans-serif" font-weight="700" font-size="15" transform="matrix(1 0 0 0.999759 24.6821 90)">Barriers/filters</text></g><text font-family="Arial,Arial_MSFontService,sans-serif" font-weight="400" font-size="15" transform="matrix(1 0 0 0.999759 37.0154 111)">Abiotic</text><text font-family="Arial,Arial_MSFontService,sans-serif" font-weight="400" font-size="15" transform="matrix(1 0 0 0.999759 37.0154 153)">Biotic</text><path d="M133 52.9872 258.333 52.9873 258.333 54.9868 133 54.9867ZM257 49.988 265 53.9871 257 57.9861Z"/><path d="M265 52.9872 390.333 52.9873 390.333 54.9868 265 54.9867ZM389 49.988 397 53.9871 389 57.9861Z"/><path d="M398 52.9872 525.344 52.9873 525.344 54.9868 398 54.9867ZM524.011 49.988 532.011 53.9871 524.011 57.9861Z"/><path d="M132.816 95.8507 266.253 95.8507 266.253 115.155 132.816 115.155Z" fill="#FFFFFF" fill-rule="evenodd" fill-opacity="0"/><path d="M266.253 95.8507 399.02 95.8507 399.02 115.155 266.253 115.155Z" fill="#FFFFFF" fill-rule="evenodd" fill-opacity="0"/><path d="M399.02 95.8507 531.787 95.8507 531.787 115.155 399.02 115.155Z" fill="#FFFFFF" fill-rule="evenodd" fill-opacity="0"/><path d="M132.816 115.155 266.253 115.155 266.253 134.46 132.816 134.46Z" fill="#FFFFFF" fill-rule="evenodd" fill-opacity="0"/><path d="M266.253 115.155 399.02 115.155 399.02 134.46 266.253 134.46Z" fill="#FFFFFF" fill-rule="evenodd" fill-opacity="0"/><path d="M399.02 115.155 531.787 115.155 531.787 134.46 399.02 134.46Z" fill="#FFFFFF" fill-rule="evenodd" fill-opacity="0"/><path d="M132.816 134.46 199.87 134.46 199.87 153.764 132.816 153.764Z" fill="#FFFFFF" fill-rule="evenodd" fill-opacity="0"/><path d="M199.87 134.46 266.253 134.46 266.253 153.764 199.87 153.764Z" fill="#FFFFFF" fill-rule="evenodd" fill-opacity="0"/><path d="M266.253 134.46 399.02 134.46 399.02 153.764 266.253 153.764Z" fill="#FFFFFF" fill-rule="evenodd" fill-opacity="0"/><path d="M399.02 134.46 531.787 134.46 531.787 153.764 399.02 153.764Z" fill="#FFFFFF" fill-rule="evenodd" fill-opacity="0"/><path d="M132.816 153.764 199.87 153.764 199.87 173.068 132.816 173.068Z" fill="#FFFFFF" fill-rule="evenodd" fill-opacity="0"/><path d="M199.87 153.764 266.253 153.764 266.253 173.068 199.87 173.068Z" fill="#FFFFFF" fill-rule="evenodd" fill-opacity="0"/><path d="M266.253 153.764 332.636 153.764 332.636 173.068 266.253 173.068Z" fill="#FFFFFF" fill-rule="evenodd" fill-opacity="0"/><path d="M332.636 153.764 399.02 153.764 399.02 173.068 332.636 173.068Z" fill="#FFFFFF" fill-rule="evenodd" fill-opacity="0"/><path d="M399.02 153.764 531.787 153.764 531.787 173.068 399.02 173.068Z" fill="#FFFFFF" fill-rule="evenodd" fill-opacity="0"/><text font-family="Arial,Arial_MSFontService,sans-serif" font-weight="400" font-size="15" transform="matrix(1 0 0 0.999759 163.285 112)">Geography</text><text font-family="Arial,Arial_MSFontService,sans-serif" font-weight="400" font-size="15" transform="matrix(1 0 0 0.999759 440.486 131)">Climate</text><text font-family="Arial,Arial_MSFontService,sans-serif" font-weight="400" font-size="15" transform="matrix(1 0 0 0.999759 307.72 131)">Climate</text><text font-family="Arial,Arial_MSFontService,sans-serif" font-weight="400" font-size="15" transform="matrix(1 0 0 0.999759 174.618 131)">Climate</text><text font-family="Arial,Arial_MSFontService,sans-serif" font-weight="400" font-size="15" transform="matrix(1 0 0 0.999759 414.903 150)">Host resistance</text><text font-family="Arial,Arial_MSFontService,sans-serif" font-weight="400" font-size="15" transform="matrix(1 0 0 0.999759 284.136 149)">Host resistance</text><text font-family="Arial,Arial_MSFontService,sans-serif" font-weight="400" font-size="15" transform="matrix(1 0 0 0.999759 427.07 169)">Antagonists</text><text font-family="Arial,Arial_MSFontService,sans-serif" font-weight="400" font-size="24" transform="matrix(1 0 0 0.999759 192.339 20)">A</text><path d="M17.7944 187.485 186.461 187.485 186.461 205.215 17.7944 205.215Z" fill-rule="evenodd"/><path d="M186.461 187.485 292.061 187.485 292.061 205.215 186.461 205.215Z" fill-rule="evenodd"/><path d="M292.061 187.485 605.185 187.485 605.185 205.215 292.061 205.215Z" fill-rule="evenodd"/><path d="M17.7944 205.215 186.461 205.215 186.461 265.691 17.7944 265.691Z" fill="#FFFFFF" fill-rule="evenodd"/><path d="M186.461 205.215 292.061 205.215 292.061 265.691 186.461 265.691Z" fill="#FFFFFF" fill-rule="evenodd"/><path d="M292.061 205.215 605.185 205.215 605.185 265.691 292.061 265.691Z" fill="#FFFFFF" fill-rule="evenodd"/><path d="M17.7944 265.691 186.461 265.691 186.461 326.953 17.7944 326.953Z" fill="#FFFFFF" fill-rule="evenodd"/><path d="M186.461 265.691 292.061 265.691 292.061 326.953 186.461 326.953Z" fill="#FFFFFF" fill-rule="evenodd"/><path d="M292.061 265.691 605.185 265.691 605.185 326.953 292.061 326.953Z" fill="#FFFFFF" fill-rule="evenodd"/><path d="M17.7944 326.953 186.461 326.953 186.461 357.584 17.7944 357.584Z" fill="#47D359" fill-rule="evenodd"/><path d="M186.461 326.953 292.061 326.953 292.061 357.584 186.461 357.584Z" fill="#47D359" fill-rule="evenodd"/><path d="M292.061 326.953 605.185 326.953 605.185 357.584 292.061 357.584Z" fill="#47D359" fill-rule="evenodd"/><path d="M17.7944 357.584 186.461 357.584 186.461 401.488 17.7944 401.488Z" fill="#C1F0C8" fill-rule="evenodd"/><path d="M186.461 357.584 292.061 357.584 292.061 401.488 186.461 401.488Z" fill="#C1F0C8" fill-rule="evenodd"/><path d="M292.061 357.584 605.185 357.584 605.185 401.488 292.061 401.488Z" fill="#C1F0C8" fill-rule="evenodd"/><path d="M17.7944 401.488 186.461 401.488 186.461 445.393 17.7944 445.393Z" fill="#FFFF00" fill-rule="evenodd"/><path d="M186.461 401.488 292.061 401.488 292.061 445.393 186.461 445.393Z" fill="#FFFF00" fill-rule="evenodd"/><path d="M292.061 401.488 605.185 401.488 605.185 445.393 292.061 445.393Z" fill="#FFFF00" fill-rule="evenodd"/><path d="M17.7944 445.393 186.461 445.393 186.461 492.36 17.7944 492.36Z" fill="#FFFF99" fill-rule="evenodd"/><path d="M186.461 445.393 292.061 445.393 292.061 492.36 186.461 492.36Z" fill="#FFFF99" fill-rule="evenodd"/><path d="M292.061 445.393 605.185 445.393 605.185 492.36 292.061 492.36Z" fill="#FFFF99" fill-rule="evenodd"/><path d="M17.7944 492.36 186.461 492.36 186.461 596.853 17.7944 596.853Z" fill="#FFFF99" fill-rule="evenodd"/><path d="M186.461 492.36 292.061 492.36 292.061 596.853 186.461 596.853Z" fill="#FFFF99" fill-rule="evenodd"/><path d="M292.061 492.36 605.185 492.36 605.185 596.853 292.061 596.853Z" fill="#FFFF99" fill-rule="evenodd"/><path d="M17.7944 596.853 186.461 596.853 186.461 642.8 17.7944 642.8Z" fill="#FFFF99" fill-rule="evenodd"/><path d="M186.461 596.853 292.061 596.853 292.061 642.8 186.461 642.8Z" fill="#FFFF99" fill-rule="evenodd"/><path d="M292.061 596.853 605.185 596.853 605.185 642.8 292.061 642.8Z" fill="#FFFF99" fill-rule="evenodd"/><path d="M17.7944 642.8 186.461 642.8 186.461 683.641 17.7944 683.641Z" fill="#F4AF4A" fill-rule="evenodd"/><path d="M186.461 642.8 292.061 642.8 292.061 683.641 186.461 683.641Z" fill="#F4AF4A" fill-rule="evenodd"/><path d="M292.061 642.8 605.185 642.8 605.185 683.641 292.061 683.641Z" fill="#F4AF4A" fill-rule="evenodd"/><text fill="#FFFFFF" font-family="Arial,Arial_MSFontService,sans-serif" font-weight="700" font-size="13" transform="matrix(1 0 0 0.999759 417.873 200)">Definition</text><text fill="#FFFFFF" font-family="Arial,Arial_MSFontService,sans-serif" font-weight="700" font-size="13" transform="matrix(1 0 0 0.999759 210.428 200)">Category</text><g><text fill="#FFFFFF" font-family="Arial,Arial_MSFontService,sans-serif" font-weight="700" font-size="13" transform="matrix(1 0 0 0.999759 23.806 200)">Term</text></g><g><text font-family="Arial,Arial_MSFontService,sans-serif" font-weight="400" font-size="13" transform="matrix(1 0 0 0.999759 298.073 218)">Woody</text></g><text font-family="Arial,Arial_MSFontService,sans-serif" font-weight="400" font-size="13" transform="matrix(1 0 0 0.999759 344.599 218)">(and</text><text font-family="Arial,Arial_MSFontService,sans-serif" font-weight="400" font-size="13" transform="matrix(1 0 0 0.999759 376.293 218)">some</text><text font-family="Arial,Arial_MSFontService,sans-serif" font-weight="400" font-size="13" transform="matrix(1 0 0 0.999759 413.986 218)">semi</text><text font-family="Arial,Arial_MSFontService,sans-serif" font-weight="400" font-size="13" transform="matrix(1 0 0 0.999759 442.153 218)">-</text><text font-family="Arial,Arial_MSFontService,sans-serif" font-weight="400" font-size="13" transform="matrix(1 0 0 0.999759 446.653 218)">woody)</text><text font-family="Arial,Arial_MSFontService,sans-serif" font-weight="400" font-size="13" transform="matrix(1 0 0 0.999759 494.679 218)">plants</text><text font-family="Arial,Arial_MSFontService,sans-serif" font-weight="400" font-size="13" transform="matrix(1 0 0 0.999759 535.206 218)">reaching</text><g><text font-family="Arial,Arial_MSFontService,sans-serif" font-weight="400" font-size="13" transform="matrix(1 0 0 0.999759 591.239 218)">&gt;</text></g><g><text font-family="Arial,Arial_MSFontService,sans-serif" font-weight="400" font-size="13" transform="matrix(1 0 0 0.999759 298.073 234)">~</text></g><text font-family="Arial,Arial_MSFontService,sans-serif" font-weight="400" font-size="13" transform="matrix(1 0 0 0.999759 305.906 234)">1</text><text font-family="Arial,Arial_MSFontService,sans-serif" font-weight="400" font-size="13" transform="matrix(1 0 0 0.999759 319.613 234)">m</text><text font-family="Arial,Arial_MSFontService,sans-serif" font-weight="400" font-size="13" transform="matrix(1 0 0 0.999759 337.153 234)">but</text><text font-family="Arial,Arial_MSFontService,sans-serif" font-weight="400" font-size="13" transform="matrix(1 0 0 0.999759 361.866 234)">usually</text><text font-family="Arial,Arial_MSFontService,sans-serif" font-weight="400" font-size="13" transform="matrix(1 0 0 0.999759 409.579 234)">&gt;</text><text font-family="Arial,Arial_MSFontService,sans-serif" font-weight="400" font-size="13" transform="matrix(1 0 0 0.999759 423.793 234)">3</text><text font-family="Arial,Arial_MSFontService,sans-serif" font-weight="400" font-size="13" transform="matrix(1 0 0 0.999759 437.506 234)">m</text><text font-family="Arial,Arial_MSFontService,sans-serif" font-weight="400" font-size="13" transform="matrix(1 0 0 0.999759 455.053 234)">in</text><text font-family="Arial,Arial_MSFontService,sans-serif" font-weight="400" font-size="13" transform="matrix(1 0 0 0.999759 471.766 234)">height</text><text font-family="Arial,Arial_MSFontService,sans-serif" font-weight="400" font-size="13" transform="matrix(1 0 0 0.999759 514.146 234)">that</text><text font-family="Arial,Arial_MSFontService,sans-serif" font-weight="400" font-size="13" transform="matrix(1 0 0 0.999759 542.526 234)">can</text><g><text font-family="Arial,Arial_MSFontService,sans-serif" font-weight="400" font-size="13" transform="matrix(1 0 0 0.999759 570.239 234)">grow</text></g><g><text font-family="Arial,Arial_MSFontService,sans-serif" font-weight="400" font-size="13" transform="matrix(1 0 0 0.999759 298.073 250)">naturally</text></g><text font-family="Arial,Arial_MSFontService,sans-serif" font-weight="400" font-size="13" transform="matrix(1 0 0 0.999759 351.906 250)">in</text><text font-family="Arial,Arial_MSFontService,sans-serif" font-weight="400" font-size="13" transform="matrix(1 0 0 0.999759 365.906 250)">nonagricultural</text><text font-family="Arial,Arial_MSFontService,sans-serif" font-weight="400" font-size="13" transform="matrix(1 0 0 0.999759 456.573 250)">landscapes</text><text font-family="Arial,Arial_MSFontService,sans-serif" font-weight="400" font-size="13" transform="matrix(1 0 0 0.999759 201.011 218)">Type of plant</text><g><text font-family="Arial,Arial_MSFontService,sans-serif" font-weight="700" font-size="13" transform="matrix(1 0 0 0.999759 23.806 218)">Forest trees and shrubs</text></g><g><text font-family="Arial,Arial_MSFontService,sans-serif" font-weight="400" font-size="13" transform="matrix(1 0 0 0.999759 298.073 279)">Organisms</text></g><text font-family="Arial,Arial_MSFontService,sans-serif" font-weight="400" font-size="13" transform="matrix(1 0 0 0.999759 367.473 279)">such</text><text font-family="Arial,Arial_MSFontService,sans-serif" font-weight="400" font-size="13" transform="matrix(1 0 0 0.999759 400.539 279)">as</text><text font-family="Arial,Arial_MSFontService,sans-serif" font-weight="400" font-size="13" transform="matrix(1 0 0 0.999759 419.606 279)">fungi,</text><text font-family="Arial,Arial_MSFontService,sans-serif" font-weight="400" font-size="13" transform="matrix(1 0 0 0.999759 457.006 279)">oomycetes,</text><g><text font-family="Arial,Arial_MSFontService,sans-serif" font-weight="400" font-size="13" transform="matrix(1 0 0 0.999759 529.906 279)">nematodes,</text></g><g><text font-family="Arial,Arial_MSFontService,sans-serif" font-weight="400" font-size="13" transform="matrix(1 0 0 0.999759 298.073 295)">prokaryotes,</text></g><text font-family="Arial,Arial_MSFontService,sans-serif" font-weight="400" font-size="13" transform="matrix(1 0 0 0.999759 383.239 295)">parasitic</text><text font-family="Arial,Arial_MSFontService,sans-serif" font-weight="400" font-size="13" transform="matrix(1 0 0 0.999759 444.906 295)">plants,</text><text font-family="Arial,Arial_MSFontService,sans-serif" font-weight="400" font-size="13" transform="matrix(1 0 0 0.999759 496.073 295)">etc</text><text font-family="Arial,Arial_MSFontService,sans-serif" font-weight="400" font-size="13" transform="matrix(1 0 0 0.999759 513.739 295)">.</text><text font-family="Arial,Arial_MSFontService,sans-serif" font-weight="400" font-size="13" transform="matrix(1 0 0 0.999759 529.573 295)">capable</text><g><text font-family="Arial,Arial_MSFontService,sans-serif" font-weight="400" font-size="13" transform="matrix(1 0 0 0.999759 588.073 295)">of</text></g><g><text font-family="Arial,Arial_MSFontService,sans-serif" font-weight="400" font-size="13" transform="matrix(1 0 0 0.999759 298.073 311)">causing</text></g><text font-family="Arial,Arial_MSFontService,sans-serif" font-weight="400" font-size="13" transform="matrix(1 0 0 0.999759 347.406 311)">diseases</text><text font-family="Arial,Arial_MSFontService,sans-serif" font-weight="400" font-size="13" transform="matrix(1 0 0 0.999759 403.406 311)">of</text><text font-family="Arial,Arial_MSFontService,sans-serif" font-weight="400" font-size="13" transform="matrix(1 0 0 0.999759 418.073 311)">forest</text><text font-family="Arial,Arial_MSFontService,sans-serif" font-weight="400" font-size="13" transform="matrix(1 0 0 0.999759 454.906 311)">trees</text><text font-family="Arial,Arial_MSFontService,sans-serif" font-weight="400" font-size="13" transform="matrix(1 0 0 0.999759 488.073 311)">and</text><text font-family="Arial,Arial_MSFontService,sans-serif" font-weight="400" font-size="13" transform="matrix(1 0 0 0.999759 513.739 311)">shrubs</text><text font-family="Arial,Arial_MSFontService,sans-serif" font-weight="400" font-size="13" transform="matrix(1 0 0 0.999759 202.844 279)">Type of pest</text><g><text font-family="Arial,Arial_MSFontService,sans-serif" font-weight="700" font-size="13" transform="matrix(1 0 0 0.999759 23.806 279)">Forest phytopathogens</text></g><g><text font-family="Arial,Arial_MSFontService,sans-serif" font-weight="400" font-size="13" transform="matrix(1 0 0 0.999759 298.073 340)">Successfully</text></g><text font-family="Arial,Arial_MSFontService,sans-serif" font-weight="400" font-size="13" transform="matrix(1 0 0 0.999759 375.573 340)">surviving</text><text font-family="Arial,Arial_MSFontService,sans-serif" font-weight="400" font-size="13" transform="matrix(1 0 0 0.999759 431.739 340)">outside</text><text font-family="Arial,Arial_MSFontService,sans-serif" font-weight="400" font-size="13" transform="matrix(1 0 0 0.999759 478.073 340)">the</text><text font-family="Arial,Arial_MSFontService,sans-serif" font-weight="400" font-size="13" transform="matrix(1 0 0 0.999759 500.073 340)">native</text><text font-family="Arial,Arial_MSFontService,sans-serif" font-weight="400" font-size="13" transform="matrix(1 0 0 0.999759 539.073 340)">range</text><text font-family="Arial,Arial_MSFontService,sans-serif" font-weight="400" font-size="13" transform="matrix(1 0 0 0.999759 194.761 340)">Invasion phase</text><g><text font-family="Arial,Arial_MSFontService,sans-serif" font-style="italic" font-weight="700" font-size="13" transform="matrix(1 0 0 0.999759 23.806 340)">Introduced</text></g><g><text font-family="Arial,Arial_MSFontService,sans-serif" font-weight="400" font-size="13" transform="matrix(1 0 0 0.999759 298.073 370)">Arrival</text></g><text font-family="Arial,Arial_MSFontService,sans-serif" font-weight="400" font-size="13" transform="matrix(1 0 0 0.999759 345.706 370)">rates</text><text font-family="Arial,Arial_MSFontService,sans-serif" font-weight="400" font-size="13" transform="matrix(1 0 0 0.999759 385.006 370)">of</text><text font-family="Arial,Arial_MSFontService,sans-serif" font-weight="400" font-size="13" transform="matrix(1 0 0 0.999759 405.806 370)">forest</text><text font-family="Arial,Arial_MSFontService,sans-serif" font-weight="400" font-size="13" transform="matrix(1 0 0 0.999759 448.773 370)">phytopathogen</text><g><text font-family="Arial,Arial_MSFontService,sans-serif" font-weight="400" font-size="13" transform="matrix(1 0 0 0.999759 545.906 370)">dispersal</text></g><g><text font-family="Arial,Arial_MSFontService,sans-serif" font-weight="400" font-size="13" transform="matrix(1 0 0 0.999759 298.073 386)">units</text></g><text font-family="Arial,Arial_MSFontService,sans-serif" font-weight="400" font-size="13" transform="matrix(1 0 0 0.999759 329.739 386)">(</text><text font-family="Arial,Arial_MSFontService,sans-serif" font-style="italic" font-weight="400" font-size="13" transform="matrix(1 0 0 0.999759 334.239 386)">e</text><text font-family="Arial,Arial_MSFontService,sans-serif" font-style="italic" font-weight="400" font-size="13" transform="matrix(1 0 0 0.999759 341.573 386)">.</text><text font-family="Arial,Arial_MSFontService,sans-serif" font-style="italic" font-weight="400" font-size="13" transform="matrix(1 0 0 0.999759 345.239 386)">g</text><text font-family="Arial,Arial_MSFontService,sans-serif" font-style="italic" font-weight="400" font-size="13" transform="matrix(1 0 0 0.999759 352.573 386)">.</text><text font-family="Arial,Arial_MSFontService,sans-serif" font-weight="400" font-size="13" transform="matrix(1 0 0 0.999759 356.239 386)">,</text><text font-family="Arial,Arial_MSFontService,sans-serif" font-weight="400" font-size="13" transform="matrix(1 0 0 0.999759 363.573 386)">spores</text><text font-family="Arial,Arial_MSFontService,sans-serif" font-weight="400" font-size="13" transform="matrix(1 0 0 0.999759 407.073 386)">or</text><text font-family="Arial,Arial_MSFontService,sans-serif" font-weight="400" font-size="13" transform="matrix(1 0 0 0.999759 422.573 386)">infected</text><text font-family="Arial,Arial_MSFontService,sans-serif" font-weight="400" font-size="13" transform="matrix(1 0 0 0.999759 472.573 386)">material)</text><text font-family="Arial,Arial_MSFontService,sans-serif" font-weight="400" font-size="13" transform="matrix(1 0 0 0.999759 200.094 370)">Driving factor</text><text font-family="Arial,Arial_MSFontService,sans-serif" font-weight="400" font-size="13" transform="matrix(1 0 0 0.999759 36.3393 370)">Propagule pressure</text><g><text font-family="Arial,Arial_MSFontService,sans-serif" font-weight="400" font-size="13" transform="matrix(1 0 0 0.999759 298.073 414)">Introduced</text></g><text font-family="Arial,Arial_MSFontService,sans-serif" font-weight="400" font-size="13" transform="matrix(1 0 0 0.999759 375.406 414)">and</text><text font-family="Arial,Arial_MSFontService,sans-serif" font-weight="400" font-size="13" transform="matrix(1 0 0 0.999759 412.239 414)">successfully</text><text font-family="Arial,Arial_MSFontService,sans-serif" font-weight="400" font-size="13" transform="matrix(1 0 0 0.999759 498.739 414)">reproducing</text><g><text font-family="Arial,Arial_MSFontService,sans-serif" font-weight="400" font-size="13" transform="matrix(1 0 0 0.999759 583.573 414)">for</text></g><g><text font-family="Arial,Arial_MSFontService,sans-serif" font-weight="400" font-size="13" transform="matrix(1 0 0 0.999759 298.073 430)">multiple</text></g><text font-family="Arial,Arial_MSFontService,sans-serif" font-weight="400" font-size="13" transform="matrix(1 0 0 0.999759 347.573 430)">generations</text><text font-family="Arial,Arial_MSFontService,sans-serif" font-weight="400" font-size="13" transform="matrix(1 0 0 0.999759 420.406 430)">outside</text><text font-family="Arial,Arial_MSFontService,sans-serif" font-weight="400" font-size="13" transform="matrix(1 0 0 0.999759 466.739 430)">the</text><text font-family="Arial,Arial_MSFontService,sans-serif" font-weight="400" font-size="13" transform="matrix(1 0 0 0.999759 488.739 430)">native</text><text font-family="Arial,Arial_MSFontService,sans-serif" font-weight="400" font-size="13" transform="matrix(1 0 0 0.999759 527.739 430)">range</text><text font-family="Arial,Arial_MSFontService,sans-serif" font-weight="400" font-size="13" transform="matrix(1 0 0 0.999759 194.761 414)">Invasion phase</text><g><text font-family="Arial,Arial_MSFontService,sans-serif" font-style="italic" font-weight="700" font-size="13" transform="matrix(1 0 0 0.999759 23.806 414)">Established</text></g><g><text font-family="Arial,Arial_MSFontService,sans-serif" font-weight="400" font-size="13" transform="matrix(1 0 0 0.999759 298.073 458)">In</text></g><text font-family="Arial,Arial_MSFontService,sans-serif" font-weight="400" font-size="13" transform="matrix(1 0 0 0.999759 314.186 458)">this</text><text font-family="Arial,Arial_MSFontService,sans-serif" font-weight="400" font-size="13" transform="matrix(1 0 0 0.999759 339.973 458)">study,</text><text font-family="Arial,Arial_MSFontService,sans-serif" font-weight="400" font-size="13" transform="matrix(1 0 0 0.999759 380.426 458)">the</text><text font-family="Arial,Arial_MSFontService,sans-serif" font-weight="400" font-size="13" transform="matrix(1 0 0 0.999759 403.879 458)">geographic</text><text font-family="Arial,Arial_MSFontService,sans-serif" font-weight="400" font-size="13" transform="matrix(1 0 0 0.999759 474.499 458)">distribution</text><text font-family="Arial,Arial_MSFontService,sans-serif" font-weight="400" font-size="13" transform="matrix(1 0 0 0.999759 543.786 458)">of</text><g><text font-family="Arial,Arial_MSFontService,sans-serif" font-weight="400" font-size="13" transform="matrix(1 0 0 0.999759 559.906 458)">overall</text></g><g><text font-family="Arial,Arial_MSFontService,sans-serif" font-weight="400" font-size="13" transform="matrix(1 0 0 0.999759 298.073 474)">phylogenetic</text></g><text font-family="Arial,Arial_MSFontService,sans-serif" font-weight="400" font-size="13" transform="matrix(1 0 0 0.999759 376.073 474)">(un</text><text font-family="Arial,Arial_MSFontService,sans-serif" font-weight="400" font-size="13" transform="matrix(1 0 0 0.999759 395.239 474)">-</text><text font-family="Arial,Arial_MSFontService,sans-serif" font-weight="400" font-size="13" transform="matrix(1 0 0 0.999759 399.739 474)">)relatedness</text><text font-family="Arial,Arial_MSFontService,sans-serif" font-weight="400" font-size="13" transform="matrix(1 0 0 0.999759 476.406 474)">among</text><text font-family="Arial,Arial_MSFontService,sans-serif" font-weight="400" font-size="13" transform="matrix(1 0 0 0.999759 520.573 474)">communities</text><text font-family="Arial,Arial_MSFontService,sans-serif" font-weight="400" font-size="13" transform="matrix(1 0 0 0.999759 204.844 458)">Barrier</text><text font-family="Arial,Arial_MSFontService,sans-serif" font-weight="400" font-size="13" transform="matrix(1 0 0 0.999759 244.844 458)">/</text><text font-family="Arial,Arial_MSFontService,sans-serif" font-weight="400" font-size="13" transform="matrix(1 0 0 0.999759 248.511 458)">filter</text><text font-family="Arial,Arial_MSFontService,sans-serif" font-weight="400" font-size="13" transform="matrix(1 0 0 0.999759 36.3393 458)">Phylogeography</text><g><text font-family="Arial,Arial_MSFontService,sans-serif" font-weight="400" font-size="13" transform="matrix(1 0 0 0.999759 298.073 505)">Distribution</text></g><text font-family="Arial,Arial_MSFontService,sans-serif" font-weight="400" font-size="13" transform="matrix(1 0 0 0.999759 372.379 505)">of</text><text font-family="Arial,Arial_MSFontService,sans-serif" font-weight="400" font-size="13" transform="matrix(1 0 0 0.999759 391.186 505)">related</text><text font-family="Arial,Arial_MSFontService,sans-serif" font-weight="400" font-size="13" transform="matrix(1 0 0 0.999759 439.493 505)">taxa</text><text font-family="Arial,Arial_MSFontService,sans-serif" font-weight="400" font-size="13" transform="matrix(1 0 0 0.999759 472.299 505)">in</text><text font-family="Arial,Arial_MSFontService,sans-serif" font-weight="400" font-size="13" transform="matrix(1 0 0 0.999759 490.439 505)">geographic</text><g><text font-family="Arial,Arial_MSFontService,sans-serif" font-weight="400" font-size="13" transform="matrix(1 0 0 0.999759 563.739 505)">space</text></g><g><text font-family="Arial,Arial_MSFontService,sans-serif" font-weight="400" font-size="13" transform="matrix(1 0 0 0.999759 298.073 521)">(includes</text></g><text font-family="Arial,Arial_MSFontService,sans-serif" font-weight="400" font-size="13" transform="matrix(1 0 0 0.999759 355.073 521)">phylogeographic</text><text font-family="Arial,Arial_MSFontService,sans-serif" font-weight="400" font-size="13" transform="matrix(1 0 0 0.999759 456.073 521)">similarity</text><text font-family="Arial,Arial_MSFontService,sans-serif" font-weight="400" font-size="13" transform="matrix(1 0 0 0.999759 508.073 521)">—</text><text font-family="Arial,Arial_MSFontService,sans-serif" font-style="italic" font-weight="400" font-size="13" transform="matrix(1 0 0 0.999759 521.406 521)">i</text><text font-family="Arial,Arial_MSFontService,sans-serif" font-style="italic" font-weight="400" font-size="13" transform="matrix(1 0 0 0.999759 524.406 521)">.</text><text font-family="Arial,Arial_MSFontService,sans-serif" font-style="italic" font-weight="400" font-size="13" transform="matrix(1 0 0 0.999759 528.073 521)">e</text><text font-family="Arial,Arial_MSFontService,sans-serif" font-style="italic" font-weight="400" font-size="13" transform="matrix(1 0 0 0.999759 535.406 521)">.</text><text font-family="Arial,Arial_MSFontService,sans-serif" font-weight="400" font-size="13" transform="matrix(1 0 0 0.999759 539.073 521)">,</text><g><text font-family="Arial,Arial_MSFontService,sans-serif" font-weight="400" font-size="13" transform="matrix(1 0 0 0.999759 546.573 521)">relatively</text></g><g><text font-family="Arial,Arial_MSFontService,sans-serif" font-weight="400" font-size="13" transform="matrix(1 0 0 0.999759 298.073 537)">smaller</text></g><text font-family="Arial,Arial_MSFontService,sans-serif" font-weight="400" font-size="13" transform="matrix(1 0 0 0.999759 348.519 537)">phylogeographic</text><text font-family="Arial,Arial_MSFontService,sans-serif" font-weight="400" font-size="13" transform="matrix(1 0 0 0.999759 453.133 537)">distance</text><text font-family="Arial,Arial_MSFontService,sans-serif" font-weight="400" font-size="13" transform="matrix(1 0 0 0.999759 502.466 537)">—</text><text font-family="Arial,Arial_MSFontService,sans-serif" font-weight="400" font-size="13" transform="matrix(1 0 0 0.999759 515.799 537)">among</text><g><text font-family="Arial,Arial_MSFontService,sans-serif" font-weight="400" font-size="13" transform="matrix(1 0 0 0.999759 563.739 537)">native</text></g><g><text font-family="Arial,Arial_MSFontService,sans-serif" font-weight="400" font-size="13" transform="matrix(1 0 0 0.999759 298.073 553)">forest</text></g><text font-family="Arial,Arial_MSFontService,sans-serif" font-weight="400" font-size="13" transform="matrix(1 0 0 0.999759 336.019 553)">tree</text><text font-family="Arial,Arial_MSFontService,sans-serif" font-weight="400" font-size="13" transform="matrix(1 0 0 0.999759 363.639 553)">and</text><text font-family="Arial,Arial_MSFontService,sans-serif" font-weight="400" font-size="13" transform="matrix(1 0 0 0.999759 390.426 553)">shrub</text><text font-family="Arial,Arial_MSFontService,sans-serif" font-weight="400" font-size="13" transform="matrix(1 0 0 0.999759 428.379 553)">communities</text><text font-family="Arial,Arial_MSFontService,sans-serif" font-weight="400" font-size="13" transform="matrix(1 0 0 0.999759 503.046 553)">;</text><text font-family="Arial,Arial_MSFontService,sans-serif" font-weight="400" font-size="13" transform="matrix(1 0 0 0.999759 511.499 553)">and</text><text font-family="Arial,Arial_MSFontService,sans-serif" font-weight="400" font-size="13" transform="matrix(1 0 0 0.999759 538.286 553)">number</text><g><text font-family="Arial,Arial_MSFontService,sans-serif" font-weight="400" font-size="13" transform="matrix(1 0 0 0.999759 588.073 553)">of</text></g><g><text font-family="Arial,Arial_MSFontService,sans-serif" font-weight="400" font-size="13" transform="matrix(1 0 0 0.999759 298.073 569)">non</text></g><text font-family="Arial,Arial_MSFontService,sans-serif" font-weight="400" font-size="13" transform="matrix(1 0 0 0.999759 320.073 569)">-</text><text font-family="Arial,Arial_MSFontService,sans-serif" font-weight="400" font-size="13" transform="matrix(1 0 0 0.999759 324.573 569)">native</text><text font-family="Arial,Arial_MSFontService,sans-serif" font-weight="400" font-size="13" transform="matrix(1 0 0 0.999759 365.879 569)">forest</text><text font-family="Arial,Arial_MSFontService,sans-serif" font-weight="400" font-size="13" transform="matrix(1 0 0 0.999759 405.019 569)">tree</text><text font-family="Arial,Arial_MSFontService,sans-serif" font-weight="400" font-size="13" transform="matrix(1 0 0 0.999759 433.826 569)">and</text><text font-family="Arial,Arial_MSFontService,sans-serif" font-weight="400" font-size="13" transform="matrix(1 0 0 0.999759 461.799 569)">shrub</text><text font-family="Arial,Arial_MSFontService,sans-serif" font-weight="400" font-size="13" transform="matrix(1 0 0 0.999759 500.946 569)">species</text><text font-family="Arial,Arial_MSFontService,sans-serif" font-weight="400" font-size="13" transform="matrix(1 0 0 0.999759 551.926 569)">that</text><g><text font-family="Arial,Arial_MSFontService,sans-serif" font-weight="400" font-size="13" transform="matrix(1 0 0 0.999759 579.906 569)">are</text></g><g><text font-family="Arial,Arial_MSFontService,sans-serif" font-weight="400" font-size="13" transform="matrix(1 0 0 0.999759 298.073 585)">established</text></g><text font-family="Arial,Arial_MSFontService,sans-serif" font-weight="400" font-size="13" transform="matrix(1 0 0 0.999759 368.739 585)">from</text><text font-family="Arial,Arial_MSFontService,sans-serif" font-weight="400" font-size="13" transform="matrix(1 0 0 0.999759 399.073 585)">one</text><text font-family="Arial,Arial_MSFontService,sans-serif" font-weight="400" font-size="13" transform="matrix(1 0 0 0.999759 424.739 585)">region</text><text font-family="Arial,Arial_MSFontService,sans-serif" font-weight="400" font-size="13" transform="matrix(1 0 0 0.999759 465.239 585)">in</text><text font-family="Arial,Arial_MSFontService,sans-serif" font-weight="400" font-size="13" transform="matrix(1 0 0 0.999759 479.239 585)">another)</text><text font-family="Arial,Arial_MSFontService,sans-serif" font-weight="400" font-size="13" transform="matrix(1 0 0 0.999759 204.844 505)">Barrier</text><text font-family="Arial,Arial_MSFontService,sans-serif" font-weight="400" font-size="13" transform="matrix(1 0 0 0.999759 244.844 505)">/</text><text font-family="Arial,Arial_MSFontService,sans-serif" font-weight="400" font-size="13" transform="matrix(1 0 0 0.999759 248.511 505)">filter</text><text font-family="Arial,Arial_MSFontService,sans-serif" font-weight="400" font-size="13" transform="matrix(1 0 0 0.999759 37.6726 505)">Biogeographic affinity</text><g><text font-family="Arial,Arial_MSFontService,sans-serif" font-weight="400" font-size="13" transform="matrix(1 0 0 0.999759 298.073 610)">Inverse</text></g><text font-family="Arial,Arial_MSFontService,sans-serif" font-weight="400" font-size="13" transform="matrix(1 0 0 0.999759 349.773 610)">of</text><text font-family="Arial,Arial_MSFontService,sans-serif" font-weight="400" font-size="13" transform="matrix(1 0 0 0.999759 368.966 610)">the</text><text font-family="Arial,Arial_MSFontService,sans-serif" font-weight="400" font-size="13" transform="matrix(1 0 0 0.999759 395.493 610)">barrier</text><text font-family="Arial,Arial_MSFontService,sans-serif" font-weight="400" font-size="13" transform="matrix(1 0 0 0.999759 442.186 610)">between</text><text font-family="Arial,Arial_MSFontService,sans-serif" font-weight="400" font-size="13" transform="matrix(1 0 0 0.999759 500.379 610)">introduction</text><g><text font-family="Arial,Arial_MSFontService,sans-serif" font-weight="400" font-size="13" transform="matrix(1 0 0 0.999759 577.073 610)">and</text></g><g><text font-family="Arial,Arial_MSFontService,sans-serif" font-weight="400" font-size="13" transform="matrix(1 0 0 0.999759 298.073 626)">establishment</text></g><text font-family="Arial,Arial_MSFontService,sans-serif" font-weight="400" font-size="13" transform="matrix(1 0 0 0.999759 379.906 626)">;</text><text font-family="Arial,Arial_MSFontService,sans-serif" font-weight="400" font-size="13" transform="matrix(1 0 0 0.999759 387.239 626)">overall</text><text font-family="Arial,Arial_MSFontService,sans-serif" font-weight="400" font-size="13" transform="matrix(1 0 0 0.999759 430.073 626)">environmental</text><text font-family="Arial,Arial_MSFontService,sans-serif" font-weight="400" font-size="13" transform="matrix(1 0 0 0.999759 517.073 626)">favorability</text><text font-family="Arial,Arial_MSFontService,sans-serif" font-weight="400" font-size="13" transform="matrix(1 0 0 0.999759 204.844 610)">Barrier</text><text font-family="Arial,Arial_MSFontService,sans-serif" font-weight="400" font-size="13" transform="matrix(1 0 0 0.999759 244.844 610)">/</text><text font-family="Arial,Arial_MSFontService,sans-serif" font-weight="400" font-size="13" transform="matrix(1 0 0 0.999759 248.511 610)">filter</text><text font-family="Arial,Arial_MSFontService,sans-serif" font-weight="400" font-size="13" transform="matrix(1 0 0 0.999759 36.3393 610)">Establishment potential</text><g><text font-family="Arial,Arial_MSFontService,sans-serif" font-weight="400" font-size="13" transform="matrix(1 0 0 0.999759 298.073 656)">Established,</text></g><text font-family="Arial,Arial_MSFontService,sans-serif" font-weight="400" font-size="13" transform="matrix(1 0 0 0.999759 380.039 656)">spreading,</text><text font-family="Arial,Arial_MSFontService,sans-serif" font-weight="400" font-size="13" transform="matrix(1 0 0 0.999759 451.673 656)">and</text><text font-family="Arial,Arial_MSFontService,sans-serif" font-weight="400" font-size="13" transform="matrix(1 0 0 0.999759 483.473 656)">causing</text><text font-family="Arial,Arial_MSFontService,sans-serif" font-weight="400" font-size="13" transform="matrix(1 0 0 0.999759 538.939 656)">harm</text><g><text font-family="Arial,Arial_MSFontService,sans-serif" font-weight="400" font-size="13" transform="matrix(1 0 0 0.999759 579.073 656)">(for</text></g><g><text font-family="Arial,Arial_MSFontService,sans-serif" font-weight="400" font-size="13" transform="matrix(1 0 0 0.999759 298.073 672)">phytopathogens,</text></g><text font-family="Arial,Arial_MSFontService,sans-serif" font-weight="400" font-size="13" transform="matrix(1 0 0 0.999759 399.406 672)">an</text><text font-family="Arial,Arial_MSFontService,sans-serif" font-weight="400" font-size="13" transform="matrix(1 0 0 0.999759 417.739 672)">epidemic</text><text font-family="Arial,Arial_MSFontService,sans-serif" font-weight="400" font-size="13" transform="matrix(1 0 0 0.999759 474.573 672)">state</text><text font-family="Arial,Arial_MSFontService,sans-serif" font-weight="400" font-size="13" transform="matrix(1 0 0 0.999759 506.906 672)">of</text><text font-family="Arial,Arial_MSFontService,sans-serif" font-weight="400" font-size="13" transform="matrix(1 0 0 0.999759 521.573 672)">disease)</text><text font-family="Arial,Arial_MSFontService,sans-serif" font-weight="400" font-size="13" transform="matrix(1 0 0 0.999759 194.761 656)">Invasion phase</text><g><text font-family="Arial,Arial_MSFontService,sans-serif" font-style="italic" font-weight="700" font-size="13" transform="matrix(1 0 0 0.999759 23.806 656)">Invasive</text></g><text font-family="Arial,Arial_MSFontService,sans-serif" font-weight="400" font-size="24" transform="matrix(1 0 0 0.999759 325.657 20)">B</text><text font-family="Arial,Arial_MSFontService,sans-serif" font-weight="400" font-size="24" transform="matrix(1 0 0 0.999759 457.939 21)">C</text></g></svg>